<svg width="22" height="20" viewBox="0 0 22 20" fill="none" xmlns="http://www.w3.org/2000/svg">
<path d="M0 19.5L11 0.5L22 19.5H0ZM3.45 17.5H18.55L11 4.5L3.45 17.5ZM11 16.5C11.2833 16.5 11.5208 16.4042 11.7125 16.2125C11.9042 16.0208 12 15.7833 12 15.5C12 15.2167 11.9042 14.9792 11.7125 14.7875C11.5208 14.5958 11.2833 14.5 11 14.5C10.7167 14.5 10.4792 14.5958 10.2875 14.7875C10.0958 14.9792 10 15.2167 10 15.5C10 15.7833 10.0958 16.0208 10.2875 16.2125C10.4792 16.4042 10.7167 16.5 11 16.5ZM10 13.5H12V8.5H10V13.5Z" fill="#FAFAFA"/>
</svg>
